<?xml version="1.0" encoding="UTF-8" standalone="no"?>
<svg
   xmlns:dc="http://purl.org/dc/elements/1.1/"
   xmlns:cc="http://creativecommons.org/ns#"
   xmlns:rdf="http://www.w3.org/1999/02/22-rdf-syntax-ns#"
   xmlns:svg="http://www.w3.org/2000/svg"
   xmlns="http://www.w3.org/2000/svg"
   xmlns:sodipodi="http://sodipodi.sourceforge.net/DTD/sodipodi-0.dtd"
   xmlns:inkscape="http://www.inkscape.org/namespaces/inkscape"
   id="svg2"
   viewBox="0 0 140 190"
   sodipodi:version="0.32"
   version="1.0"
   inkscape:version="1.0.2-2 (e86c870879, 2021-01-15)"
   y="0"
   x="0"
   sodipodi:docname="nicubunu-White-deck-Ace-of-hearts.svg">
  <defs
     id="defs20" />
  <sodipodi:namedview
     id="base"
     bordercolor="#666666"
     inkscape:window-x="0"
     inkscape:window-y="26"
     pagecolor="#ffffff"
     inkscape:zoom="5.4037844"
     inkscape:pageshadow="2"
     borderopacity="1.0"
     inkscape:current-layer="layer1"
     inkscape:cx="34.100343"
     inkscape:cy="151.70907"
     inkscape:window-height="791"
     inkscape:pageopacity="0.0"
     inkscape:window-width="1152"
     inkscape:document-rotation="0"
     showgrid="false"
     inkscape:window-maximized="0" />
  <g
     id="layer1"
     inkscape:label="Layer 1"
     inkscape:groupmode="layer">
    <path
       id="rect2070"
       style="fill:#000000;fill-opacity:0.49804"
       d="m 21,5 h 103 c 8.86,0 16,7.136 16,16 v 153 c 0,8.86 -7.14,16 -16,16 H 21 C 12.136,190 5,182.86 5,174 V 21 C 5,12.136 12.136,5 21,5 Z" />
    <path
       id="rect1300"
       style="fill:#000000"
       d="m 17,1 h 103 c 8.86,0 16,7.136 16,16 v 153 c 0,8.86 -7.14,16 -16,16 H 17 C 8.136,186 1,178.86 1,170 V 17 C 1,8.136 8.136,1 17,1 Z" />
    <path
       id="path5624"
       style="fill:#000000"
       d="m 19,3 h 103 c 8.86,0 16,7.136 16,16 v 153 c 0,8.86 -7.14,16 -16,16 H 19 C 10.136,188 3,180.86 3,172 V 19 C 3,10.136 10.136,3 19,3 Z" />
    <path
       id="rect1306"
       style="fill:#ffffff"
       d="m 18,2 h 103 c 8.86,0 16,7.136 16,16 v 153 c 0,8.86 -7.14,16 -16,16 H 18 C 9.136,187 2,179.86 2,171 V 18 C 2,9.136 9.136,2 18,2 Z" />
  </g>
  <path
     id="text2070"
     style="fill:#ff0000"
     d="m25.449 36.534h-10.001l-1.579 5.466h-6.4291l9.1871-30h7.626l9.187 30h-6.43l-1.561-5.466m-8.407-5.566h6.795l-3.389-11.935-3.406 11.935" />
  <g
     id="g1605"
     style="fill:#ff0000"
     transform="matrix(.28639 0 0 .38877 -29.034 -9.4724)">
    <path
       id="path1585"
       style="fill-rule:evenodd"
       d="m147.21 156.42c-2.54 0.01-5.33 0.48-8.41 1.53-33.62 19.53 11.7 51.04 30.84 78.09l0.56 0.14c21.03-29.57 61.07-62.11 30.47-78.23-24.23-8.25-30.71 19.2-30.93 20.19-0.2-0.87-5.15-21.81-22.53-21.72z"
       transform="matrix(1.1054 0 0 1.0796 -12.014 -18.867)" />
  </g>
  <path
     id="text15628"
     style="fill:#ff0000"
     d="m113.57 152.47h10l1.58-5.47h6.43l-9.19 30h-7.62l-9.19-30h6.43l1.56 5.47m8.41 5.56h-6.8l3.39 11.94 3.41-11.94" />
  <g
     id="g15632"
     style="fill:#ff0000"
     transform="matrix(-.28643 0 0 -.38877 168.06 198.31)">
    <path
       id="path15634"
       style="fill-rule:evenodd"
       d="m147.21 156.42c-2.54 0.01-5.33 0.48-8.41 1.53-33.62 19.53 11.7 51.04 30.84 78.09l0.56 0.14c21.03-29.57 61.07-62.11 30.47-78.23-24.23-8.25-30.71 19.2-30.93 20.19-0.2-0.87-5.15-21.81-22.53-21.72z"
       transform="matrix(1.1054 0 0 1.0796 -12.014 -18.867)" />
  </g>
  <g
     id="g1318"
     style="fill:#ff0000"
     transform="matrix(.61330 0 0 .83980 -37.919 -66.915)">
    <path
       id="path1320"
       style="fill-rule:evenodd"
       d="m147.21 156.42c-2.54 0.01-5.33 0.48-8.41 1.53-33.62 19.53 11.7 51.04 30.84 78.09l0.56 0.14c21.03-29.57 61.07-62.11 30.47-78.23-24.23-8.25-30.71 19.2-30.93 20.19-0.2-0.87-5.15-21.81-22.53-21.72z"
       transform="matrix(1.1054 0 0 1.0796 -12.014 -18.867)" />
  </g>
  <metadata
     id="metadata17">
    <rdf:RDF>
      <cc:Work>
        <dc:format>image/svg+xml</dc:format>
        <dc:type
           rdf:resource="http://purl.org/dc/dcmitype/StillImage" />
        <cc:license
           rdf:resource="http://creativecommons.org/licenses/publicdomain/" />
        <dc:publisher>
          <cc:Agent
             rdf:about="http://openclipart.org/">
            <dc:title>Openclipart</dc:title>
          </cc:Agent>
        </dc:publisher>
        <dc:title>White deck: Ace of hearts</dc:title>
        <dc:date>2009-03-24T12:27:13</dc:date>
        <dc:description>playing card from the &quot;White&quot; set</dc:description>
        <dc:source>https://openclipart.org/detail/23191/white-deck:-ace-of-hearts-by-nicubunu</dc:source>
        <dc:creator>
          <cc:Agent>
            <dc:title>nicubunu</dc:title>
          </cc:Agent>
        </dc:creator>
        <dc:subject>
          <rdf:Bag>
            <rdf:li>card</rdf:li>
            <rdf:li>cards</rdf:li>
            <rdf:li>deck</rdf:li>
            <rdf:li>gambling</rdf:li>
            <rdf:li>game</rdf:li>
            <rdf:li>play</rdf:li>
            <rdf:li>playing cards</rdf:li>
            <rdf:li>white deck</rdf:li>
          </rdf:Bag>
        </dc:subject>
      </cc:Work>
      <cc:License
         rdf:about="http://creativecommons.org/licenses/publicdomain/">
        <cc:permits
           rdf:resource="http://creativecommons.org/ns#Reproduction" />
        <cc:permits
           rdf:resource="http://creativecommons.org/ns#Distribution" />
        <cc:permits
           rdf:resource="http://creativecommons.org/ns#DerivativeWorks" />
      </cc:License>
    </rdf:RDF>
  </metadata>
</svg>
