<?xml version="1.0" encoding="UTF-8" standalone="no"?>
<svg
   xmlns:dc="http://purl.org/dc/elements/1.1/"
   xmlns:cc="http://creativecommons.org/ns#"
   xmlns:rdf="http://www.w3.org/1999/02/22-rdf-syntax-ns#"
   xmlns:svg="http://www.w3.org/2000/svg"
   xmlns="http://www.w3.org/2000/svg"
   xmlns:sodipodi="http://sodipodi.sourceforge.net/DTD/sodipodi-0.dtd"
   xmlns:inkscape="http://www.inkscape.org/namespaces/inkscape"
   id="svg2"
   viewBox="0 0 140 190"
   sodipodi:version="0.32"
   version="1.0"
   inkscape:version="1.0.2-2 (e86c870879, 2021-01-15)"
   y="0"
   x="0"
   sodipodi:docname="nicubunu-White-deck-King-of-diamonds.svg">
  <sodipodi:namedview
     id="base"
     bordercolor="#666666"
     inkscape:window-x="0"
     inkscape:window-y="26"
     pagecolor="#ffffff"
     inkscape:zoom="2.8284271"
     inkscape:pageshadow="2"
     borderopacity="1.0"
     inkscape:current-layer="layer1"
     inkscape:cx="37.636039"
     inkscape:cy="135.36797"
     inkscape:window-height="791"
     inkscape:pageopacity="0.0"
     inkscape:window-width="1152"
     inkscape:document-rotation="0"
     showgrid="false"
     inkscape:window-maximized="0" />
  <defs
     id="defs3">
    <linearGradient
       id="linearGradient5417">
      <stop
         id="stop5419"
         style="stop-color:#f0a700"
         offset="0" />
      <stop
         id="stop5421"
         style="stop-color:#ffed00"
         offset="1" />
    </linearGradient>
    <linearGradient
       id="linearGradient5407">
      <stop
         id="stop5409"
         style="stop-color:#f0eb00"
         offset="0" />
      <stop
         id="stop5411"
         style="stop-color:#ffff00"
         offset="1" />
    </linearGradient>
  </defs>
  <g
     id="layer1"
     inkscape:label="Layer 1"
     inkscape:groupmode="layer">
    <path
       id="rect2070"
       style="fill:#000000;fill-opacity:0.49804"
       d="m 21,5 h 103 c 8.86,0 16,7.136 16,16 v 153 c 0,8.86 -7.14,16 -16,16 H 21 C 12.136,190 5,182.86 5,174 V 21 C 5,12.136 12.136,5 21,5 Z" />
    <path
       id="rect1300"
       style="fill:#000000"
       d="m 17,1 h 103 c 8.86,0 16,7.136 16,16 v 153 c 0,8.86 -7.14,16 -16,16 H 17 C 8.136,186 1,178.86 1,170 V 17 C 1,8.136 8.136,1 17,1 Z" />
    <path
       id="path5624"
       style="fill:#000000"
       d="m 19,3 h 103 c 8.86,0 16,7.136 16,16 v 153 c 0,8.86 -7.14,16 -16,16 H 19 C 10.136,188 3,180.86 3,172 V 19 C 3,10.136 10.136,3 19,3 Z" />
    <path
       id="rect1306"
       style="fill:#ffffff"
       d="m 18,2 h 103 c 8.86,0 16,7.136 16,16 v 153 c 0,8.86 -7.14,16 -16,16 H 18 C 9.136,187 2,179.86 2,171 V 18 C 2,9.136 9.136,2 18,2 Z" />
  </g>
  <path
     id="text1481"
     style="fill:#ff0000"
     d="m10.027 12.24h6.396v10.951l9.221-10.951h7.426l-11.945 14.206 13.174 15.794h-8.007l-9.869-11.815v11.815h-6.396v-30" />
  <path
     id="text4064"
     style="fill:#ff0000"
     d="m128.66 176.63h-6.39v-10.95l-9.22 10.95h-7.43l11.95-14.21-13.18-15.79h8.01l9.87 11.82v-11.82h6.39v30" />
  <path
     id="path1608"
     style="fill-rule:evenodd;fill:#ff0000"
     d="m20.41 48.665c-4.126 8.245-7.135 12.498-13.34 17.04 5.872 4.487 10.013 9.124 13.46 16.62 3.079-7.121 6.847-12.43 13.39-16.843-6.582-3.349-10.393-8.654-13.51-16.817z" />
  <path
     id="path1518"
     style="fill-rule:evenodd;fill:#ff0000"
     d="m118.34 106.34c-4.13 8.25-7.13 12.5-13.34 17.04 5.87 4.49 10.01 9.12 13.46 16.62 3.08-7.12 6.85-12.43 13.39-16.84-6.58-3.35-10.39-8.66-13.51-16.82z" />
  <metadata
     id="metadata67">
    <rdf:RDF>
      <cc:Work>
        <dc:format>image/svg+xml</dc:format>
        <dc:type
           rdf:resource="http://purl.org/dc/dcmitype/StillImage" />
        <cc:license
           rdf:resource="http://creativecommons.org/licenses/publicdomain/" />
        <dc:publisher>
          <cc:Agent
             rdf:about="http://openclipart.org/">
            <dc:title>Openclipart</dc:title>
          </cc:Agent>
        </dc:publisher>
        <dc:title>White deck: King of diamonds</dc:title>
        <dc:date>2009-03-24T12:08:38</dc:date>
        <dc:description>playing card from the &quot;White&quot; set</dc:description>
        <dc:source>https://openclipart.org/detail/23166/white-deck:-king-of-diamonds-by-nicubunu</dc:source>
        <dc:creator>
          <cc:Agent>
            <dc:title>nicubunu</dc:title>
          </cc:Agent>
        </dc:creator>
        <dc:subject>
          <rdf:Bag>
            <rdf:li>card</rdf:li>
            <rdf:li>cards</rdf:li>
            <rdf:li>deck</rdf:li>
            <rdf:li>gambling</rdf:li>
            <rdf:li>game</rdf:li>
            <rdf:li>play</rdf:li>
            <rdf:li>playing cards</rdf:li>
            <rdf:li>white deck</rdf:li>
          </rdf:Bag>
        </dc:subject>
      </cc:Work>
      <cc:License
         rdf:about="http://creativecommons.org/licenses/publicdomain/">
        <cc:permits
           rdf:resource="http://creativecommons.org/ns#Reproduction" />
        <cc:permits
           rdf:resource="http://creativecommons.org/ns#Distribution" />
        <cc:permits
           rdf:resource="http://creativecommons.org/ns#DerivativeWorks" />
      </cc:License>
    </rdf:RDF>
  </metadata>
</svg>
