<?xml version="1.0" encoding="UTF-8" standalone="no"?>
<svg
   xmlns:dc="http://purl.org/dc/elements/1.1/"
   xmlns:cc="http://creativecommons.org/ns#"
   xmlns:rdf="http://www.w3.org/1999/02/22-rdf-syntax-ns#"
   xmlns:svg="http://www.w3.org/2000/svg"
   xmlns="http://www.w3.org/2000/svg"
   xmlns:sodipodi="http://sodipodi.sourceforge.net/DTD/sodipodi-0.dtd"
   xmlns:inkscape="http://www.inkscape.org/namespaces/inkscape"
   id="svg2"
   sodipodi:docname="nicubunu-White-deck-2-of-spades.svg"
   viewBox="0 0 140 190"
   sodipodi:version="0.32"
   version="1.0"
   y="0"
   x="0"
   inkscape:version="1.0.2-2 (e86c870879, 2021-01-15)">
  <defs
     id="defs22" />
  <sodipodi:namedview
     id="base"
     bordercolor="#666666"
     inkscape:pageshadow="2"
     inkscape:window-y="26"
     pagecolor="#ffffff"
     inkscape:window-height="1099"
     inkscape:zoom="5.6568542"
     inkscape:window-x="0"
     borderopacity="1.0"
     inkscape:current-layer="layer1"
     inkscape:cx="54.297258"
     inkscape:cy="142.08942"
     inkscape:window-width="1719"
     inkscape:pageopacity="0.0"
     inkscape:document-rotation="0"
     showgrid="false"
     inkscape:window-maximized="0" />
  <g
     id="layer1"
     inkscape:label="Layer 1"
     inkscape:groupmode="layer">
    <path
       id="rect2070"
       style="fill:#000000;fill-opacity:0.49804"
       d="m 21,5 h 103 c 8.86,0 16,7.136 16,16 v 153 c 0,8.86 -7.14,16 -16,16 H 21 C 12.136,190 5,182.86 5,174 V 21 C 5,12.136 12.136,5 21,5 Z" />
    <path
       id="rect1300"
       style="fill:#000000"
       d="m 17,1 h 103 c 8.86,0 16,7.136 16,16 v 153 c 0,8.86 -7.14,16 -16,16 H 17 C 8.136,186 1,178.86 1,170 V 17 C 1,8.136 8.136,1 17,1 Z" />
    <path
       id="path5624"
       style="fill:#000000"
       d="m 19,3 h 103 c 8.86,0 16,7.136 16,16 v 153 c 0,8.86 -7.14,16 -16,16 H 19 C 10.136,188 3,180.86 3,172 V 19 C 3,10.136 10.136,3 19,3 Z" />
    <path
       id="rect1306"
       style="fill:#ffffff"
       d="m 18,2 h 103 c 8.86,0 16,7.136 16,16 v 153 c 0,8.86 -7.14,16 -16,16 H 18 C 9.136,187 2,179.86 2,171 V 18 C 2,9.136 9.136,2 18,2 Z" />
  </g>
  <g
     id="g1729"
     transform="matrix(.59314 0 0 .23894 -85.425 14.585)">
    <path
       id="path1731"
       sodipodi:nodetypes="cccccccccc"
       style="stroke-linejoin:round;fill-rule:evenodd;stroke-width:.75890;fill:#000000"
       d="m260.18 149.6c-4.84 19.24-19.68 52-10.28 62.12 5.71 4.66 8.42-4.88 9.57-11.19h0.23l-3.79 31.84 8.78-0.1s-3.78-30.6-3.79-31.77h0.09c0.93 5.16 4.46 15.83 8.34 11.77 11.34-11.4-5.36-43.83-9.15-62.67z" />
  </g>
  <g
     id="g1753"
     transform="matrix(-.59314 0 0 -.23894 223.04 172.76)">
    <path
       id="path1755"
       sodipodi:nodetypes="cccccccccc"
       style="stroke-linejoin:round;fill-rule:evenodd;stroke-width:.75890;fill:#000000"
       d="m260.18 149.6c-4.84 19.24-19.68 52-10.28 62.12 5.71 4.66 8.42-4.88 9.57-11.19h0.23l-3.79 31.84 8.78-0.1s-3.78-30.6-3.79-31.77h0.09c0.93 5.16 4.46 15.83 8.34 11.77 11.34-11.4-5.36-43.83-9.15-62.67z" />
  </g>
  <g
     id="g2373"
     transform="matrix(1 0 0 .40081 -239.54 -11.052)">
    <path
       id="path2375"
       sodipodi:nodetypes="cccccccccc"
       style="fill-rule:evenodd;fill:#000000"
       d="m260.18 148.99c-4.93 19.52-20.04 52.76-10.46 63.03 5.81 4.72 8.57-4.95 9.74-11.35h0.24l-3.86 32.3 8.94-0.1s-3.85-31.05-3.86-32.23h0.09c0.95 5.23 4.54 16.06 8.49 11.93 11.54-11.56-5.46-44.46-9.32-63.58z" />
  </g>
  <path
     id="text2035"
     style="fill:#000000"
     d="m18.8 36.311h10.915v5.687h-18.025v-5.687l9.054-9.665c0.809-0.884 1.407-1.748 1.794-2.592 0.388-0.844 0.582-1.721 0.582-2.632 0-1.406-0.393-2.538-1.18-3.396-0.775-0.857-1.81-1.286-3.106-1.286-0.997 0-2.088 0.261-3.273 0.784-1.185 0.509-2.453 1.273-3.805 2.291v-6.591c1.44-0.576 2.863-1.011 4.27-1.306 1.407-0.308 2.786-0.462 4.137-0.462 2.968 0 5.272 0.79 6.911 2.371 1.65 1.58 2.475 3.784 2.475 6.61 0 1.635-0.349 3.162-1.046 4.582-0.698 1.406-2.166 3.295-4.403 5.666l-5.3 5.626" />
  <g
     id="g2058"
     transform="matrix(-1 0 0 -.40081 378.46 199.96)">
    <path
       id="path2060"
       sodipodi:nodetypes="cccccccccc"
       style="fill-rule:evenodd;fill:#000000"
       d="m259.94 149.6c-4.93 19.52-20.04 52.76-10.46 63.03 5.81 4.72 8.57-4.95 9.74-11.35h0.24l-3.86 32.3 8.94-0.1s-3.85-31.05-3.86-32.24h0.09c0.95 5.24 4.54 16.07 8.49 11.94 11.54-11.56-5.46-44.47-9.32-63.58z" />
  </g>
  <path
     id="text2062"
     style="fill:#000000"
     d="m120.12 152.44h-10.92v-5.68h18.03v5.68l-9.05 9.67c-0.81 0.88-1.41 1.75-1.8 2.59-0.39 0.85-0.58 1.72-0.58 2.63 0 1.41 0.39 2.54 1.18 3.4 0.78 0.86 1.81 1.29 3.11 1.29 0.99 0 2.08-0.27 3.27-0.79 1.18-0.51 2.45-1.27 3.8-2.29v6.59c-1.44 0.58-2.86 1.01-4.27 1.31-1.4 0.31-2.78 0.46-4.13 0.46-2.97 0-5.27-0.79-6.91-2.37-1.65-1.58-2.48-3.79-2.48-6.61 0-1.64 0.35-3.16 1.05-4.58 0.7-1.41 2.16-3.3 4.4-5.67l5.3-5.63" />
  <metadata
     id="metadata19">
    <rdf:RDF>
      <cc:Work>
        <dc:format>image/svg+xml</dc:format>
        <dc:type
           rdf:resource="http://purl.org/dc/dcmitype/StillImage" />
        <cc:license
           rdf:resource="http://creativecommons.org/licenses/publicdomain/" />
        <dc:publisher>
          <cc:Agent
             rdf:about="http://openclipart.org/">
            <dc:title>Openclipart</dc:title>
          </cc:Agent>
        </dc:publisher>
        <dc:title>White deck: 2 of spades</dc:title>
        <dc:date>2009-03-24T12:32:44</dc:date>
        <dc:description>playing card from the &quot;White&quot; set</dc:description>
        <dc:source>https://openclipart.org/detail/23199/white-deck:-2-of-spades-by-nicubunu</dc:source>
        <dc:creator>
          <cc:Agent>
            <dc:title>nicubunu</dc:title>
          </cc:Agent>
        </dc:creator>
        <dc:subject>
          <rdf:Bag>
            <rdf:li>card</rdf:li>
            <rdf:li>cards</rdf:li>
            <rdf:li>deck</rdf:li>
            <rdf:li>gambling</rdf:li>
            <rdf:li>game</rdf:li>
            <rdf:li>play</rdf:li>
            <rdf:li>playing cards</rdf:li>
            <rdf:li>white deck</rdf:li>
          </rdf:Bag>
        </dc:subject>
      </cc:Work>
      <cc:License
         rdf:about="http://creativecommons.org/licenses/publicdomain/">
        <cc:permits
           rdf:resource="http://creativecommons.org/ns#Reproduction" />
        <cc:permits
           rdf:resource="http://creativecommons.org/ns#Distribution" />
        <cc:permits
           rdf:resource="http://creativecommons.org/ns#DerivativeWorks" />
      </cc:License>
    </rdf:RDF>
  </metadata>
</svg>
