<?xml version="1.0" encoding="UTF-8" standalone="no"?>
<svg
   xmlns:dc="http://purl.org/dc/elements/1.1/"
   xmlns:cc="http://creativecommons.org/ns#"
   xmlns:rdf="http://www.w3.org/1999/02/22-rdf-syntax-ns#"
   xmlns:svg="http://www.w3.org/2000/svg"
   xmlns="http://www.w3.org/2000/svg"
   xmlns:sodipodi="http://sodipodi.sourceforge.net/DTD/sodipodi-0.dtd"
   xmlns:inkscape="http://www.inkscape.org/namespaces/inkscape"
   id="svg2"
   sodipodi:docname="nicubunu-White-deck-4-of-spades.svg"
   viewBox="0 0 140 190"
   sodipodi:version="0.32"
   version="1.0"
   y="0"
   x="0"
   inkscape:version="1.0.2-2 (e86c870879, 2021-01-15)">
  <defs
     id="defs26" />
  <sodipodi:namedview
     id="base"
     bordercolor="#666666"
     inkscape:pageshadow="2"
     inkscape:window-y="26"
     pagecolor="#ffffff"
     inkscape:window-height="791"
     inkscape:zoom="8"
     inkscape:window-x="0"
     borderopacity="1.0"
     inkscape:current-layer="layer1"
     inkscape:cx="22.574378"
     inkscape:cy="152.9594"
     inkscape:window-width="1152"
     inkscape:pageopacity="0.0"
     inkscape:document-rotation="0"
     showgrid="false"
     inkscape:window-maximized="0" />
  <g
     id="layer1"
     inkscape:label="Layer 1"
     inkscape:groupmode="layer">
    <path
       id="rect2070"
       style="fill:#000000;fill-opacity:0.49804"
       d="m 21,5 h 103 c 8.86,0 16,7.136 16,16 v 153 c 0,8.86 -7.14,16 -16,16 H 21 C 12.136,190 5,182.86 5,174 V 21 C 5,12.136 12.136,5 21,5 Z" />
    <path
       id="rect1300"
       style="fill:#000000"
       d="m 17,1 h 103 c 8.86,0 16,7.136 16,16 v 153 c 0,8.86 -7.14,16 -16,16 H 17 C 8.136,186 1,178.86 1,170 V 17 C 1,8.136 8.136,1 17,1 Z" />
    <path
       id="path5624"
       style="fill:#000000"
       d="m 19,3 h 103 c 8.86,0 16,7.136 16,16 v 153 c 0,8.86 -7.14,16 -16,16 H 19 C 10.136,188 3,180.86 3,172 V 19 C 3,10.136 10.136,3 19,3 Z" />
    <path
       id="rect1306"
       style="fill:#ffffff"
       d="m 18,2 h 103 c 8.86,0 16,7.136 16,16 v 153 c 0,8.86 -7.14,16 -16,16 H 18 C 9.136,187 2,179.86 2,171 V 18 C 2,9.136 9.136,2 18,2 Z" />
  </g>
  <g
     id="g1729"
     transform="matrix(.59314 0 0 .23894 -103.05 9.256)">
    <path
       id="path1731"
       sodipodi:nodetypes="cccccccccc"
       style="stroke-linejoin:round;fill-rule:evenodd;stroke-width:.75890;fill:#000000"
       d="m260.18 149.6c-4.84 19.24-19.68 52-10.28 62.12 5.71 4.66 8.42-4.88 9.57-11.19h0.23l-3.79 31.84 8.78-0.1s-3.78-30.6-3.79-31.77h0.09c0.93 5.16 4.46 15.83 8.34 11.77 11.34-11.4-5.36-43.83-9.15-62.67z" />
  </g>
  <g
     id="g1753"
     transform="matrix(-.59314 0 0 -.23894 207.41 177.52)">
    <path
       id="path1755"
       sodipodi:nodetypes="cccccccccc"
       style="stroke-linejoin:round;fill-rule:evenodd;stroke-width:.75890;fill:#000000"
       d="m260.18 149.6c-4.84 19.24-19.68 52-10.28 62.12 5.71 4.66 8.42-4.88 9.57-11.19h0.23l-3.79 31.84 8.78-0.1s-3.78-30.6-3.79-31.77h0.09c0.93 5.16 4.46 15.83 8.34 11.77 11.34-11.4-5.36-43.83-9.15-62.67z" />
  </g>
  <g
     id="g3456"
     transform="matrix(.59314 0 0 .23894 -67.053 9.256)">
    <path
       id="path3458"
       sodipodi:nodetypes="cccccccccc"
       style="stroke-linejoin:round;fill-rule:evenodd;stroke-width:.75890;fill:#000000"
       d="m260.18 149.6c-4.84 19.24-19.68 52-10.28 62.12 5.71 4.66 8.42-4.88 9.57-11.19h0.23l-3.79 31.84 8.78-0.1s-3.78-30.6-3.79-31.77h0.09c0.93 5.16 4.46 15.83 8.34 11.77 11.34-11.4-5.36-43.83-9.15-62.67z" />
  </g>
  <g
     id="g3460"
     transform="matrix(-.59314 0 0 -.23894 242.41 177.52)">
    <path
       id="path3462"
       sodipodi:nodetypes="cccccccccc"
       style="stroke-linejoin:round;fill-rule:evenodd;stroke-width:.75890;fill:#000000"
       d="m260.18 149.6c-4.84 19.24-19.68 52-10.28 62.12 5.71 4.66 8.42-4.88 9.57-11.19h0.23l-3.79 31.84 8.78-0.1s-3.78-30.6-3.79-31.77h0.09c0.93 5.16 4.46 15.83 8.34 11.77 11.34-11.4-5.36-43.83-9.15-62.67z" />
  </g>
  <g
     id="g3439"
     transform="matrix(1 0 0 .40081 -239.78 -10.811)">
    <path
       id="path3441"
       sodipodi:nodetypes="cccccccccc"
       style="fill-rule:evenodd;fill:#000000"
       d="m260.42 148.39c-4.93 19.52-20.04 52.76-10.46 63.03 5.81 4.72 8.57-4.95 9.74-11.35h0.24l-3.86 32.3 8.94-0.1s-3.85-31.05-3.86-32.23h0.09c0.95 5.23 4.54 16.06 8.49 11.94 11.54-11.57-5.46-44.47-9.32-63.59z" />
  </g>
  <path
     id="text2358"
     style="fill:#000000"
     d="m21.285 18.608l-7.011 12.558h7.011v-12.558m-1.064-6.37h7.111v18.928h3.538v5.607h-3.538v5.465h-6.047v-5.465h-10.998v-6.631l9.934-17.904" />
  <g
     id="g17395"
     transform="matrix(-1 0 0 -.40081 378.46 199.48)">
    <path
       id="path17397"
       sodipodi:nodetypes="cccccccccc"
       style="fill-rule:evenodd;fill:#000000"
       d="m260.42 148.39c-4.93 19.52-20.04 52.76-10.46 63.03 5.81 4.72 8.57-4.95 9.74-11.35h0.24l-3.86 32.3 8.94-0.1s-3.85-31.05-3.86-32.23h0.09c0.95 5.23 4.54 16.06 8.49 11.94 11.54-11.57-5.46-44.47-9.32-63.59z" />
  </g>
  <path
     id="text17399"
     style="fill:#000000"
     d="m117.4 170.53l7.01-12.56h-7.01v12.56m1.06 6.37h-7.11v-18.93h-3.54v-5.6h3.54v-5.47h6.05v5.47h10.99v6.63l-9.93 17.9" />
  <metadata
     id="metadata23">
    <rdf:RDF>
      <cc:Work>
        <dc:format>image/svg+xml</dc:format>
        <dc:type
           rdf:resource="http://purl.org/dc/dcmitype/StillImage" />
        <cc:license
           rdf:resource="http://creativecommons.org/licenses/publicdomain/" />
        <dc:publisher>
          <cc:Agent
             rdf:about="http://openclipart.org/">
            <dc:title>Openclipart</dc:title>
          </cc:Agent>
        </dc:publisher>
        <dc:title>White deck: 4 of spades</dc:title>
        <dc:date>2009-03-24T12:35:49</dc:date>
        <dc:description>playing card from the &quot;White&quot; set</dc:description>
        <dc:source>https://openclipart.org/detail/23203/white-deck:-4-of-spades-by-nicubunu</dc:source>
        <dc:creator>
          <cc:Agent>
            <dc:title>nicubunu</dc:title>
          </cc:Agent>
        </dc:creator>
        <dc:subject>
          <rdf:Bag>
            <rdf:li>card</rdf:li>
            <rdf:li>cards</rdf:li>
            <rdf:li>deck</rdf:li>
            <rdf:li>gambling</rdf:li>
            <rdf:li>game</rdf:li>
            <rdf:li>play</rdf:li>
            <rdf:li>playing cards</rdf:li>
            <rdf:li>white deck</rdf:li>
          </rdf:Bag>
        </dc:subject>
      </cc:Work>
      <cc:License
         rdf:about="http://creativecommons.org/licenses/publicdomain/">
        <cc:permits
           rdf:resource="http://creativecommons.org/ns#Reproduction" />
        <cc:permits
           rdf:resource="http://creativecommons.org/ns#Distribution" />
        <cc:permits
           rdf:resource="http://creativecommons.org/ns#DerivativeWorks" />
      </cc:License>
    </rdf:RDF>
  </metadata>
</svg>
