<?xml version="1.0" encoding="UTF-8" standalone="no"?>
<svg
   xmlns:dc="http://purl.org/dc/elements/1.1/"
   xmlns:cc="http://creativecommons.org/ns#"
   xmlns:rdf="http://www.w3.org/1999/02/22-rdf-syntax-ns#"
   xmlns:svg="http://www.w3.org/2000/svg"
   xmlns="http://www.w3.org/2000/svg"
   xmlns:sodipodi="http://sodipodi.sourceforge.net/DTD/sodipodi-0.dtd"
   xmlns:inkscape="http://www.inkscape.org/namespaces/inkscape"
   id="svg2"
   viewBox="0 0 140 190"
   sodipodi:version="0.32"
   version="1.0"
   inkscape:version="1.0.2-2 (e86c870879, 2021-01-15)"
   y="0"
   x="0"
   sodipodi:docname="nicubunu-White-deck-Queen-of-diamonds.svg">
  <sodipodi:namedview
     id="base"
     bordercolor="#666666"
     inkscape:window-x="0"
     inkscape:window-y="26"
     pagecolor="#ffffff"
     inkscape:zoom="2"
     inkscape:pageshadow="2"
     borderopacity="1.0"
     inkscape:current-layer="layer1"
     inkscape:cx="38.520815"
     inkscape:cy="128.68586"
     inkscape:window-height="791"
     inkscape:pageopacity="0.0"
     inkscape:window-width="1152"
     inkscape:document-rotation="0"
     showgrid="false"
     inkscape:window-maximized="0" />
  <defs
     id="defs3">
    <linearGradient
       id="linearGradient5417">
      <stop
         id="stop5419"
         style="stop-color:#f0a700"
         offset="0" />
      <stop
         id="stop5421"
         style="stop-color:#ffed00"
         offset="1" />
    </linearGradient>
    <linearGradient
       id="linearGradient3857">
      <stop
         id="stop3859"
         style="stop-color:#ffd8c1"
         offset="0" />
      <stop
         id="stop3861"
         style="stop-color:#ffeded"
         offset="1" />
    </linearGradient>
  </defs>
  <g
     id="layer1"
     inkscape:label="Layer 1"
     inkscape:groupmode="layer">
    <path
       id="rect2070"
       style="fill:#000000;fill-opacity:0.49804"
       d="m 21,5 h 103 c 8.86,0 16,7.136 16,16 v 153 c 0,8.86 -7.14,16 -16,16 H 21 C 12.136,190 5,182.86 5,174 V 21 C 5,12.136 12.136,5 21,5 Z" />
    <path
       id="rect1300"
       style="fill:#000000"
       d="m 17,1 h 103 c 8.86,0 16,7.136 16,16 v 153 c 0,8.86 -7.14,16 -16,16 H 17 C 8.136,186 1,178.86 1,170 V 17 C 1,8.136 8.136,1 17,1 Z" />
    <path
       id="path5624"
       style="fill:#000000"
       d="m 19,3 h 103 c 8.86,0 16,7.136 16,16 v 153 c 0,8.86 -7.14,16 -16,16 H 19 C 10.136,188 3,180.86 3,172 V 19 C 3,10.136 10.136,3 19,3 Z" />
    <path
       id="rect1306"
       style="fill:#ffffff"
       d="m 18,2 h 103 c 8.86,0 16,7.136 16,16 v 153 c 0,8.86 -7.14,16 -16,16 H 18 C 9.136,187 2,179.86 2,171 V 18 C 2,9.136 9.136,2 18,2 Z" />
  </g>
  <path
     id="text1481"
     style="fill:#ff0000"
     d="m22.289 42.783h-0.499c-4.087 0-7.265-1.367-9.536-4.1-2.2703-2.732-3.4056-6.537-3.4056-11.413 0-4.862 1.1297-8.674 3.3896-11.433 2.27-2.76 5.393-4.139 9.369-4.139 4.021 0 7.15 1.366 9.387 4.099 2.248 2.733 3.373 6.557 3.373 11.473 0 3.376-0.599 6.283-1.795 8.721-1.185 2.438-2.896 4.273-5.133 5.506l5 6.751h-6.097l-4.053-5.465m-0.682-25.479c-1.949 0-3.461 0.871-4.535 2.612s-1.611 4.193-1.611 7.354c0 3.215 0.526 5.68 1.578 7.395 1.052 1.701 2.575 2.552 4.568 2.552 1.961 0 3.478-0.871 4.553-2.613 1.074-1.741 1.611-4.186 1.611-7.334 0-3.161-0.537-5.613-1.611-7.354-1.075-1.741-2.592-2.612-4.553-2.612" />
  <path
     id="text4064"
     style="fill:#ff0000"
     d="m116.9 146.09h0.5c4.09 0 7.27 1.36 9.54 4.1 2.27 2.73 3.4 6.53 3.4 11.41 0 4.86-1.13 8.67-3.39 11.43-2.27 2.76-5.39 4.14-9.37 4.14-4.02 0-7.15-1.36-9.38-4.1-2.25-2.73-3.38-6.55-3.38-11.47 0-3.38 0.6-6.28 1.8-8.72 1.18-2.44 2.89-4.27 5.13-5.51l-5-6.75h6.1l4.05 5.47m0.68 25.48c1.95 0 3.46-0.87 4.54-2.62 1.07-1.74 1.61-4.19 1.61-7.35 0-3.22-0.53-5.68-1.58-7.39s-2.57-2.56-4.57-2.56c-1.96 0-3.48 0.87-4.55 2.62-1.07 1.74-1.61 4.18-1.61 7.33 0 3.16 0.54 5.61 1.61 7.35 1.07 1.75 2.59 2.62 4.55 2.62" />
  <path
     id="path1608"
     style="fill-rule:evenodd;fill:#ff0000"
     d="m20.66 48.665c-4.126 8.245-7.135 12.498-13.34 17.04 5.872 4.487 10.013 9.124 13.46 16.62 3.079-7.121 6.847-12.43 13.39-16.843-6.582-3.349-10.393-8.654-13.51-16.817z" />
  <path
     id="path1518"
     style="fill-rule:evenodd;fill:#ff0000"
     d="m118.59 106.34c-4.13 8.25-7.13 12.5-13.34 17.04 5.87 4.49 10.01 9.12 13.46 16.62 3.08-7.12 6.85-12.43 13.39-16.84-6.58-3.35-10.39-8.66-13.51-16.82z" />
  <metadata
     id="metadata59">
    <rdf:RDF>
      <cc:Work>
        <dc:format>image/svg+xml</dc:format>
        <dc:type
           rdf:resource="http://purl.org/dc/dcmitype/StillImage" />
        <cc:license
           rdf:resource="http://creativecommons.org/licenses/publicdomain/" />
        <dc:publisher>
          <cc:Agent
             rdf:about="http://openclipart.org/">
            <dc:title>Openclipart</dc:title>
          </cc:Agent>
        </dc:publisher>
        <dc:title>White deck: Queen of diamonds</dc:title>
        <dc:date>2009-03-24T12:10:16</dc:date>
        <dc:description>playing card from the &quot;White&quot; set</dc:description>
        <dc:source>https://openclipart.org/detail/23168/white-deck:-queen-of-diamonds-by-nicubunu</dc:source>
        <dc:creator>
          <cc:Agent>
            <dc:title>nicubunu</dc:title>
          </cc:Agent>
        </dc:creator>
        <dc:subject>
          <rdf:Bag>
            <rdf:li>card</rdf:li>
            <rdf:li>cards</rdf:li>
            <rdf:li>deck</rdf:li>
            <rdf:li>gambling</rdf:li>
            <rdf:li>game</rdf:li>
            <rdf:li>play</rdf:li>
            <rdf:li>playing cards</rdf:li>
            <rdf:li>white deck</rdf:li>
          </rdf:Bag>
        </dc:subject>
      </cc:Work>
      <cc:License
         rdf:about="http://creativecommons.org/licenses/publicdomain/">
        <cc:permits
           rdf:resource="http://creativecommons.org/ns#Reproduction" />
        <cc:permits
           rdf:resource="http://creativecommons.org/ns#Distribution" />
        <cc:permits
           rdf:resource="http://creativecommons.org/ns#DerivativeWorks" />
      </cc:License>
    </rdf:RDF>
  </metadata>
</svg>
