<?xml version="1.0" encoding="UTF-8" standalone="no"?>
<svg
   xmlns:osb="http://www.openswatchbook.org/uri/2009/osb"
   xmlns:dc="http://purl.org/dc/elements/1.1/"
   xmlns:cc="http://creativecommons.org/ns#"
   xmlns:rdf="http://www.w3.org/1999/02/22-rdf-syntax-ns#"
   xmlns:svg="http://www.w3.org/2000/svg"
   xmlns="http://www.w3.org/2000/svg"
   xmlns:xlink="http://www.w3.org/1999/xlink"
   xmlns:sodipodi="http://sodipodi.sourceforge.net/DTD/sodipodi-0.dtd"
   xmlns:inkscape="http://www.inkscape.org/namespaces/inkscape"
   id="svg2"
   viewBox="0 0 140 190"
   sodipodi:version="0.32"
   version="1.0"
   inkscape:version="1.0.2-2 (e86c870879, 2021-01-15)"
   y="0"
   x="0"
   sodipodi:docname="nicubunu-Card-backs-grid-blue.svg">
  <sodipodi:namedview
     id="base"
     bordercolor="#666666"
     inkscape:window-x="0"
     inkscape:window-y="26"
     pagecolor="#ffffff"
     inkscape:zoom="2.7018922"
     inkscape:pageshadow="2"
     borderopacity="1.0"
     inkscape:current-layer="svg2"
     inkscape:cx="20.245223"
     inkscape:cy="84.528966"
     inkscape:window-height="1001"
     inkscape:pageopacity="0.0"
     inkscape:window-width="1460"
     inkscape:document-rotation="0"
     showgrid="false"
     inkscape:window-maximized="0" />
  <defs
     id="defs3">
    <pattern
       inkscape:collect="always"
       xlink:href="#pattern10642"
       id="pattern1986"
       patternTransform="matrix(1,0,0,1.0329156,15,-8.2845505)" />
    <linearGradient
       id="linearGradient1826"
       osb:paint="solid">
      <stop
         style="stop-color:#000000;stop-opacity:1;"
         offset="0"
         id="stop1824" />
    </linearGradient>
    <linearGradient
       id="linearGradient8304">
      <stop
         id="stop8314"
         style="stop-color:#830007"
         offset="0" />
      <stop
         id="stop8316"
         style="stop-color:#ff0000"
         offset="1" />
    </linearGradient>
    <linearGradient
       id="linearGradient4853"
       y2="128.7"
       gradientUnits="userSpaceOnUse"
       x2="109"
       gradientTransform="translate(0 -1)"
       y1="63.1"
       x1="2">
      <stop
         id="stop2062"
         style="stop-color:#ebf0d0"
         offset="0" />
      <stop
         id="stop2064"
         style="stop-color:#ffffeb"
         offset="1" />
    </linearGradient>
    <linearGradient
       id="linearGradient8318"
       y2="18.728"
       xlink:href="#linearGradient8304"
       gradientUnits="userSpaceOnUse"
       x2="36.52"
       gradientTransform="matrix(0.85424,0,0,1.2091737,0,-3.123435)"
       y1="146.62"
       x1="138.23" />
    <linearGradient
       id="linearGradient9086"
       y2="140.45"
       xlink:href="#linearGradient8304"
       gradientUnits="userSpaceOnUse"
       x2="146.4"
       gradientTransform="matrix(0.85537,0,0,1.2020277,0,-2.6698553)"
       y1="17.153"
       x1="22.029" />
    <pattern
       id="pattern10642"
       width="14.142157"
       patternUnits="userSpaceOnUse"
       patternTransform="translate(15 -5)"
       height="13.750009">
      <g
         id="g10644"
         style="fill:#ffffff"
         transform="translate(31.25 -2.9289)">
        <rect
           id="rect10646"
           transform="rotate(45)"
           height="5"
           width="5"
           y="21.668"
           x="-17.526" />
        <rect
           id="rect10648"
           transform="rotate(45)"
           height="5"
           width="5"
           y="26.391"
           x="-12.803" />
        <rect
           id="rect10650"
           transform="rotate(45)"
           height="5"
           width="5"
           y="16.668"
           x="-12.526" />
        <rect
           id="rect10652"
           transform="rotate(45)"
           height="5"
           width="5"
           y="21.391"
           x="-7.8033" />
      </g>
    </pattern>
  </defs>
  <g
     id="g5630">
    <path
       id="rect2070"
       style="fill-opacity:.49804;fill:#000000"
       d="m21 5h103c8.86 0 16 7.136 16 16v153c0 8.86-7.14 16-16 16h-103c-8.864 0-16-7.14-16-16v-153c0-8.864 7.136-16 16-16z" />
    <path
       id="rect1300"
       style="fill:#ffffff"
       d="m17 1h103c8.86 0 16 7.136 16 16v153c0 8.86-7.14 16-16 16h-103c-8.864 0-16-7.14-16-16v-153c0-8.864 7.136-16 16-16z" />
    <path
       id="path5624"
       style="fill:#c7891f"
       d="m19 3h103c8.86 0 16 7.136 16 16v153c0 8.86-7.14 16-16 16h-103c-8.864 0-16-7.14-16-16v-153c0-8.864 7.136-16 16-16z" />
    <path
       id="rect1306"
       style="fill:url(#linearGradient4853)"
       d="m18 2h103c8.86 0 16 7.136 16 16v153c0 8.86-7.14 16-16 16h-103c-8.864 0-16-7.14-16-16v-153c0-8.864 7.136-16 16-16z" />
  </g>
  <path
     id="path1385"
     style="fill:#0066ff;stroke-width:1.01634;fill-opacity:0.80722892"
     d="m 22.167,7.2060864 h 94.413 c 8.13,0 14.67,6.7565396 14.67,15.1503096 V 167.22793 c 0,8.38758 -6.54,15.14308 -14.67,15.14308 H 22.167 c -8.126,0 -14.667,-6.7555 -14.667,-15.14308 V 22.356396 C 7.5,13.959528 14.041,7.2029876 22.167,7.2029876 Z" />
  <path
     id="path9846"
     style="opacity:0.90322581;fill:url(#pattern1986);fill-opacity:1;stroke-width:1.01632"
     d="m 22.167,7.2091852 h 94.413 c 8.13,0 14.67,6.7562998 14.67,15.1497718 V 167.22538 c 0,8.38726 -6.54,15.14254 -14.67,15.14254 H 22.167 c -8.126,0 -14.667,-6.75528 -14.667,-15.14254 V 22.358957 C 7.5,13.962388 14.041,7.2060864 22.167,7.2060864 Z" />
  <path
     id="path2154"
     style="fill:#4d4d4d;stroke-width:1.01398"
     d="m 22.156,6.9691912 c -8.461,0 -15.281,7.0120848 -15.281,15.7113888 v 144.20014 c 0,8.69827 6.82,15.7412 15.281,15.7412 h 94.434 c 8.46,0 15.29,-7.04293 15.29,-15.7412 V 22.68058 c 0,-8.703416 -6.83,-15.7155014 -15.29,-15.7155014 H 22.156 Z m 0,1.2852062 h 94.434 c 7.79,0 14.03,6.4167776 14.03,14.4261826 v 144.20014 c 0,8.0094 -6.24,14.456 -14.03,14.456 H 22.156 c -7.79,0 -14.031,-6.4466 -14.031,-14.456 V 22.68058 c 0,-8.013518 6.241,-14.4302952 14.031,-14.4302952 z" />
  <metadata
     id="metadata26">
    <rdf:RDF>
      <cc:Work>
        <dc:format>image/svg+xml</dc:format>
        <dc:type
           rdf:resource="http://purl.org/dc/dcmitype/StillImage" />
        <cc:license
           rdf:resource="http://creativecommons.org/licenses/publicdomain/" />
        <dc:publisher>
          <cc:Agent
             rdf:about="http://openclipart.org/">
            <dc:title>Openclipart</dc:title>
          </cc:Agent>
        </dc:publisher>
        <dc:title>Card backs: grid red</dc:title>
        <dc:date>2009-03-23T13:59:53</dc:date>
        <dc:description>playing card backs for the &quot;Ornamental&quot;, &quot;White&quot;, &quot;Simple&quot; and &quot;Bordered&quot; sets</dc:description>
        <dc:source>https://openclipart.org/detail/23038/card-backs:-grid-red-by-nicubunu-23038</dc:source>
        <dc:creator>
          <cc:Agent>
            <dc:title>nicubunu</dc:title>
          </cc:Agent>
        </dc:creator>
        <dc:subject>
          <rdf:Bag>
            <rdf:li>bordered deck</rdf:li>
            <rdf:li>card</rdf:li>
            <rdf:li>cards</rdf:li>
            <rdf:li>deck</rdf:li>
            <rdf:li>gambling</rdf:li>
            <rdf:li>game</rdf:li>
            <rdf:li>ornamental deck</rdf:li>
            <rdf:li>play</rdf:li>
            <rdf:li>playing cards</rdf:li>
            <rdf:li>simple deck</rdf:li>
            <rdf:li>white deck</rdf:li>
          </rdf:Bag>
        </dc:subject>
      </cc:Work>
      <cc:License
         rdf:about="http://creativecommons.org/licenses/publicdomain/">
        <cc:permits
           rdf:resource="http://creativecommons.org/ns#Reproduction" />
        <cc:permits
           rdf:resource="http://creativecommons.org/ns#Distribution" />
        <cc:permits
           rdf:resource="http://creativecommons.org/ns#DerivativeWorks" />
      </cc:License>
    </rdf:RDF>
  </metadata>
</svg>
