<?xml version="1.0" encoding="UTF-8" standalone="no"?>
<svg
   xmlns:dc="http://purl.org/dc/elements/1.1/"
   xmlns:cc="http://creativecommons.org/ns#"
   xmlns:rdf="http://www.w3.org/1999/02/22-rdf-syntax-ns#"
   xmlns:svg="http://www.w3.org/2000/svg"
   xmlns="http://www.w3.org/2000/svg"
   xmlns:sodipodi="http://sodipodi.sourceforge.net/DTD/sodipodi-0.dtd"
   xmlns:inkscape="http://www.inkscape.org/namespaces/inkscape"
   id="svg2"
   sodipodi:docname="nicubunu-White-deck-7-of-spades.svg"
   viewBox="0 0 140 190"
   sodipodi:version="0.32"
   version="1.0"
   y="0"
   x="0"
   inkscape:version="1.0.2-2 (e86c870879, 2021-01-15)">
  <defs
     id="defs30" />
  <sodipodi:namedview
     id="base"
     bordercolor="#666666"
     inkscape:pageshadow="2"
     inkscape:window-y="26"
     pagecolor="#ffffff"
     inkscape:window-height="791"
     inkscape:zoom="4"
     inkscape:window-x="0"
     borderopacity="1.0"
     inkscape:current-layer="layer1"
     inkscape:cx="43.699008"
     inkscape:cy="166.44657"
     inkscape:window-width="1152"
     inkscape:pageopacity="0.0"
     inkscape:document-rotation="0"
     showgrid="false"
     inkscape:window-maximized="0" />
  <g
     id="layer1"
     inkscape:label="Layer 1"
     inkscape:groupmode="layer">
    <path
       id="rect2070"
       style="fill:#000000;fill-opacity:0.49804"
       d="m 21,5 h 103 c 8.86,0 16,7.136 16,16 v 153 c 0,8.86 -7.14,16 -16,16 H 21 C 12.136,190 5,182.86 5,174 V 21 C 5,12.136 12.136,5 21,5 Z" />
    <path
       id="rect1300"
       style="fill:#000000"
       d="m 17,1 h 103 c 8.86,0 16,7.136 16,16 v 153 c 0,8.86 -7.14,16 -16,16 H 17 C 8.136,186 1,178.86 1,170 V 17 C 1,8.136 8.136,1 17,1 Z" />
    <path
       id="path5624"
       style="fill:#000000"
       d="m 19,3 h 103 c 8.86,0 16,7.136 16,16 v 153 c 0,8.86 -7.14,16 -16,16 H 19 C 10.136,188 3,180.86 3,172 V 19 C 3,10.136 10.136,3 19,3 Z" />
    <path
       id="rect1306"
       style="fill:#ffffff"
       d="m 18,2 h 103 c 8.86,0 16,7.136 16,16 v 153 c 0,8.86 -7.14,16 -16,16 H 18 C 9.136,187 2,179.86 2,171 V 18 C 2,9.136 9.136,2 18,2 Z" />
  </g>
  <g
     id="g1729"
     transform="matrix(.59314 0 0 .23894 -103.05 9.256)">
    <path
       id="path1731"
       sodipodi:nodetypes="cccccccccc"
       style="stroke-linejoin:round;fill-rule:evenodd;stroke-width:.75890;fill:#000000"
       d="m260.18 149.6c-4.84 19.24-19.68 52-10.28 62.12 5.71 4.66 8.42-4.88 9.57-11.19h0.23l-3.79 31.84 8.78-0.1s-3.78-30.6-3.79-31.77h0.09c0.93 5.16 4.46 15.83 8.34 11.77 11.34-11.4-5.36-43.83-9.15-62.67z" />
  </g>
  <g
     id="g1753"
     transform="matrix(-.59314 0 0 -.23894 207.41 177.52)">
    <path
       id="path1755"
       sodipodi:nodetypes="cccccccccc"
       style="stroke-linejoin:round;fill-rule:evenodd;stroke-width:.75890;fill:#000000"
       d="m260.18 149.6c-4.84 19.24-19.68 52-10.28 62.12 5.71 4.66 8.42-4.88 9.57-11.19h0.23l-3.79 31.84 8.78-0.1s-3.78-30.6-3.79-31.77h0.09c0.93 5.16 4.46 15.83 8.34 11.77 11.34-11.4-5.36-43.83-9.15-62.67z" />
  </g>
  <g
     id="g3456"
     transform="matrix(.59314 0 0 .23894 -67.053 9.256)">
    <path
       id="path3458"
       sodipodi:nodetypes="cccccccccc"
       style="stroke-linejoin:round;fill-rule:evenodd;stroke-width:.75890;fill:#000000"
       d="m260.18 149.6c-4.84 19.24-19.68 52-10.28 62.12 5.71 4.66 8.42-4.88 9.57-11.19h0.23l-3.79 31.84 8.78-0.1s-3.78-30.6-3.79-31.77h0.09c0.93 5.16 4.46 15.83 8.34 11.77 11.34-11.4-5.36-43.83-9.15-62.67z" />
  </g>
  <g
     id="g3460"
     transform="matrix(-.59314 0 0 -.23894 242.41 177.52)">
    <path
       id="path3462"
       sodipodi:nodetypes="cccccccccc"
       style="stroke-linejoin:round;fill-rule:evenodd;stroke-width:.75890;fill:#000000"
       d="m260.18 149.6c-4.84 19.24-19.68 52-10.28 62.12 5.71 4.66 8.42-4.88 9.57-11.19h0.23l-3.79 31.84 8.78-0.1s-3.78-30.6-3.79-31.77h0.09c0.93 5.16 4.46 15.83 8.34 11.77 11.34-11.4-5.36-43.83-9.15-62.67z" />
  </g>
  <path
     id="path1561"
     sodipodi:nodetypes="cccccccccc"
     style="fill-rule:evenodd;fill:#000000"
     d="m20.645 48.665c-4.925 7.825-20.035 21.149-10.463 25.263 5.811 1.894 8.576-1.983 9.747-4.549h0.235l-3.859 12.946 8.937-0.038s-3.85-12.445-3.859-12.921h0.094c0.946 2.097 4.536 6.439 8.484 4.785 11.546-4.635-5.455-17.824-9.316-25.486z" />
  <path
     id="text2850"
     style="fill:#000000"
     d="m11.275 11.998h18.69v4.36l-9.669 25.64h-6.23l9.154-24.313h-11.945v-5.687" />
  <path
     id="path18705"
     sodipodi:nodetypes="cccccccccc"
     style="fill-rule:evenodd;fill:#000000"
     d="m118.13 140c4.92-7.82 20.03-21.15 10.46-25.26-5.81-1.9-8.58 1.98-9.75 4.55h-0.23l3.86-12.95-8.94 0.04s3.85 12.44 3.86 12.92h-0.1c-0.94-2.1-4.53-6.44-8.48-4.79-11.547 4.64 5.45 17.83 9.32 25.49z" />
  <path
     id="text18707"
     style="fill:#000000"
     d="m127.5 177h-18.69v-4.36l9.66-25.64h6.23l-9.15 24.31h11.95v5.69" />
  <g
     id="g3957"
     transform="matrix(.59314 0 0 .23894 -84.412 24.256)">
    <path
       id="path3959"
       sodipodi:nodetypes="cccccccccc"
       style="stroke-linejoin:round;fill-rule:evenodd;stroke-width:.75890;fill:#000000"
       d="m260.18 149.6c-4.84 19.24-19.68 52-10.28 62.12 5.71 4.66 8.42-4.88 9.57-11.19h0.23l-3.79 31.84 8.78-0.1s-3.78-30.6-3.79-31.77h0.09c0.93 5.16 4.46 15.83 8.34 11.77 11.34-11.4-5.36-43.83-9.15-62.67z" />
  </g>
  <g
     id="g4593"
     transform="matrix(-.59314 0 0 -.23894 224.41 162.52)">
    <path
       id="path4595"
       sodipodi:nodetypes="cccccccccc"
       style="stroke-linejoin:round;fill-rule:evenodd;stroke-width:.75890;fill:#000000"
       d="m260.18 149.6c-4.84 19.24-19.68 52-10.28 62.12 5.71 4.66 8.42-4.88 9.57-11.19h0.23l-3.79 31.84 8.78-0.1s-3.78-30.6-3.79-31.77h0.09c0.93 5.16 4.46 15.83 8.34 11.77 11.34-11.4-5.36-43.83-9.15-62.67z" />
  </g>
  <g
     id="g4982"
     transform="matrix(.59314 0 0 .23894 -84.053 47.256)">
    <path
       id="path4984"
       sodipodi:nodetypes="cccccccccc"
       style="stroke-linejoin:round;fill-rule:evenodd;stroke-width:.75890;fill:#000000"
       d="m260.18 149.6c-4.84 19.24-19.68 52-10.28 62.12 5.71 4.66 8.42-4.88 9.57-11.19h0.23l-3.79 31.84 8.78-0.1s-3.78-30.6-3.79-31.77h0.09c0.93 5.16 4.46 15.83 8.34 11.77 11.34-11.4-5.36-43.83-9.15-62.67z" />
  </g>
  <metadata
     id="metadata27">
    <rdf:RDF>
      <cc:Work>
        <dc:format>image/svg+xml</dc:format>
        <dc:type
           rdf:resource="http://purl.org/dc/dcmitype/StillImage" />
        <cc:license
           rdf:resource="http://creativecommons.org/licenses/publicdomain/" />
        <dc:publisher>
          <cc:Agent
             rdf:about="http://openclipart.org/">
            <dc:title>Openclipart</dc:title>
          </cc:Agent>
        </dc:publisher>
        <dc:title>White deck: 7 of spades</dc:title>
        <dc:date>2009-03-24T12:40:25</dc:date>
        <dc:description>playing card from the &quot;White&quot; set</dc:description>
        <dc:source>https://openclipart.org/detail/23209/white-deck:-7-of-spades-by-nicubunu</dc:source>
        <dc:creator>
          <cc:Agent>
            <dc:title>nicubunu</dc:title>
          </cc:Agent>
        </dc:creator>
        <dc:subject>
          <rdf:Bag>
            <rdf:li>card</rdf:li>
            <rdf:li>cards</rdf:li>
            <rdf:li>deck</rdf:li>
            <rdf:li>gambling</rdf:li>
            <rdf:li>game</rdf:li>
            <rdf:li>play</rdf:li>
            <rdf:li>playing cards</rdf:li>
            <rdf:li>white deck</rdf:li>
          </rdf:Bag>
        </dc:subject>
      </cc:Work>
      <cc:License
         rdf:about="http://creativecommons.org/licenses/publicdomain/">
        <cc:permits
           rdf:resource="http://creativecommons.org/ns#Reproduction" />
        <cc:permits
           rdf:resource="http://creativecommons.org/ns#Distribution" />
        <cc:permits
           rdf:resource="http://creativecommons.org/ns#DerivativeWorks" />
      </cc:License>
    </rdf:RDF>
  </metadata>
</svg>
