<?xml version="1.0" encoding="UTF-8" standalone="no"?>
<svg
   xmlns:dc="http://purl.org/dc/elements/1.1/"
   xmlns:cc="http://creativecommons.org/ns#"
   xmlns:rdf="http://www.w3.org/1999/02/22-rdf-syntax-ns#"
   xmlns:svg="http://www.w3.org/2000/svg"
   xmlns="http://www.w3.org/2000/svg"
   xmlns:sodipodi="http://sodipodi.sourceforge.net/DTD/sodipodi-0.dtd"
   xmlns:inkscape="http://www.inkscape.org/namespaces/inkscape"
   id="svg2"
   sodipodi:docname="nicubunu-White-deck-Queen-of-clubs.svg"
   viewBox="0 0 140 190"
   sodipodi:version="0.32"
   version="1.0"
   y="0"
   x="0"
   inkscape:version="1.0.2-2 (e86c870879, 2021-01-15)">
  <sodipodi:namedview
     id="base"
     bordercolor="#666666"
     inkscape:pageshadow="2"
     inkscape:window-y="26"
     pagecolor="#ffffff"
     inkscape:window-height="791"
     inkscape:zoom="1"
     inkscape:window-x="0"
     showgrid="false"
     borderopacity="1.0"
     inkscape:current-layer="layer1"
     inkscape:cx="70"
     inkscape:cy="95"
     inkscape:window-width="1152"
     inkscape:pageopacity="0.0"
     inkscape:document-rotation="0"
     inkscape:window-maximized="0" />
  <defs
     id="defs3">
    <linearGradient
       id="linearGradient3857">
      <stop
         id="stop3859"
         style="stop-color:#ffd8c1"
         offset="0" />
      <stop
         id="stop3861"
         style="stop-color:#ffeded"
         offset="1" />
    </linearGradient>
  </defs>
  <g
     id="layer1"
     inkscape:label="Layer 1"
     inkscape:groupmode="layer">
    <path
       id="rect2070"
       style="fill:#000000;fill-opacity:0.49804"
       d="m 21,5 h 103 c 8.86,0 16,7.136 16,16 v 153 c 0,8.86 -7.14,16 -16,16 H 21 C 12.136,190 5,182.86 5,174 V 21 C 5,12.136 12.136,5 21,5 Z" />
    <path
       id="rect1300"
       style="fill:#000000"
       d="m 17,1 h 103 c 8.86,0 16,7.136 16,16 v 153 c 0,8.86 -7.14,16 -16,16 H 17 C 8.136,186 1,178.86 1,170 V 17 C 1,8.136 8.136,1 17,1 Z" />
    <path
       id="path5624"
       style="fill:#000000"
       d="m 19,3 h 103 c 8.86,0 16,7.136 16,16 v 153 c 0,8.86 -7.14,16 -16,16 H 19 C 10.136,188 3,180.86 3,172 V 19 C 3,10.136 10.136,3 19,3 Z" />
    <path
       id="rect1306"
       style="fill:#ffffff"
       d="m 18,2 h 103 c 8.86,0 16,7.136 16,16 v 153 c 0,8.86 -7.14,16 -16,16 H 18 C 9.136,187 2,179.86 2,171 V 18 C 2,9.136 9.136,2 18,2 Z" />
  </g>
  <path
     id="text1481"
     style="fill:#000000"
     d="m22.039 42.783h-0.499c-4.087 0-7.265-1.367-9.536-4.1-2.2703-2.732-3.4056-6.537-3.4056-11.413 0-4.862 1.1297-8.674 3.3896-11.433 2.27-2.76 5.393-4.139 9.37-4.139 4.02 0 7.149 1.366 9.386 4.099 2.248 2.732 3.373 6.557 3.373 11.473 0 3.376-0.599 6.283-1.795 8.721-1.185 2.438-2.896 4.273-5.133 5.506l5 6.751h-6.097l-4.053-5.465m-0.681-25.479c-1.95 0-3.462 0.87-4.536 2.612-1.074 1.741-1.611 4.193-1.611 7.354 0 3.215 0.526 5.68 1.578 7.395 1.052 1.701 2.575 2.552 4.569 2.552 1.96 0 3.477-0.871 4.552-2.613 1.074-1.741 1.611-4.186 1.611-7.334 0-3.161-0.537-5.613-1.611-7.354-1.075-1.742-2.592-2.612-4.552-2.612" />
  <path
     id="text4064"
     style="fill:#000000"
     d="m116.65 146.09h0.5c4.09 0 7.27 1.36 9.54 4.1 2.27 2.73 3.4 6.53 3.4 11.41 0 4.86-1.13 8.67-3.39 11.43-2.27 2.76-5.39 4.14-9.37 4.14-4.02 0-7.15-1.36-9.38-4.1-2.25-2.73-3.38-6.55-3.38-11.47 0-3.38 0.6-6.28 1.8-8.72 1.18-2.44 2.89-4.27 5.13-5.51l-5-6.75h6.1l4.05 5.47m0.68 25.48c1.95 0 3.46-0.87 4.54-2.62 1.07-1.74 1.61-4.19 1.61-7.35 0-3.22-0.53-5.68-1.58-7.39s-2.57-2.56-4.57-2.56c-1.96 0-3.48 0.87-4.55 2.62-1.07 1.74-1.61 4.18-1.61 7.33 0 3.16 0.54 5.61 1.61 7.35 1.07 1.75 2.59 2.62 4.55 2.62" />
  <path
     id="path908"
     sodipodi:nodetypes="cscsssccccccssscsc"
     style="fill-rule:evenodd;fill:#000000"
     d="m20.527 48.665c-2.666 0-4.83 3.264-4.83 7.286 0 3.426 4.392 9.191 4.222 11.929-1.41 0.783-5.767-6.437-8.019-6.437-2.6665 0-4.83 3.263-4.83 7.285 0 4.023 2.1635 7.286 4.83 7.286 2.312 0 6.276-7.214 8.019-6.563l-2.929 12.874 7.024-0.042s-3.077-12.481-3.081-12.776h0.055v0.014c1.707-0.64 5.806 6.632 8.102 6.632 2.667 0 4.83-3.263 4.83-7.286 0-4.022-2.163-7.285-4.83-7.285-2.242 0-6.308 7.1-8.093 6.368 0.025-2.806 4.36-8.577 4.36-11.999 0-4.022-2.163-7.286-4.83-7.286z" />
  <path
     id="path4052"
     sodipodi:nodetypes="cscsssccccccssscsc"
     style="fill-rule:evenodd;fill:#000000"
     d="m117.42 139.96c2.66 0 4.83-3.26 4.83-7.28 0-3.43-4.39-9.19-4.22-11.93 1.41-0.79 5.76 6.43 8.02 6.43 2.66 0 4.83-3.26 4.83-7.28s-2.17-7.29-4.83-7.29c-2.32 0-6.28 7.22-8.02 6.57l2.93-12.88-7.03 0.04s3.08 12.49 3.08 12.78h-0.05v-0.01c-1.71 0.64-5.81-6.64-8.1-6.64-2.67 0-4.83 3.27-4.83 7.29s2.16 7.29 4.83 7.29c2.24 0 6.3-7.1 8.09-6.37-0.03 2.8-4.36 8.57-4.36 12 0 4.02 2.16 7.28 4.83 7.28z" />
  <metadata
     id="metadata57">
    <rdf:RDF>
      <cc:Work>
        <dc:format>image/svg+xml</dc:format>
        <dc:type
           rdf:resource="http://purl.org/dc/dcmitype/StillImage" />
        <cc:license
           rdf:resource="http://creativecommons.org/licenses/publicdomain/" />
        <dc:publisher>
          <cc:Agent
             rdf:about="http://openclipart.org/">
            <dc:title>Openclipart</dc:title>
          </cc:Agent>
        </dc:publisher>
        <dc:title>White deck: Queen of clubs</dc:title>
        <dc:date>2009-03-24T09:27:04</dc:date>
        <dc:description>playing card from the &quot;White&quot; set</dc:description>
        <dc:source>https://openclipart.org/detail/23123/white-deck:-queen-of-clubs-by-nicubunu</dc:source>
        <dc:creator>
          <cc:Agent>
            <dc:title>nicubunu</dc:title>
          </cc:Agent>
        </dc:creator>
        <dc:subject>
          <rdf:Bag>
            <rdf:li>card</rdf:li>
            <rdf:li>cards</rdf:li>
            <rdf:li>deck</rdf:li>
            <rdf:li>gambling</rdf:li>
            <rdf:li>game</rdf:li>
            <rdf:li>play</rdf:li>
            <rdf:li>playing cards</rdf:li>
            <rdf:li>white deck</rdf:li>
          </rdf:Bag>
        </dc:subject>
      </cc:Work>
      <cc:License
         rdf:about="http://creativecommons.org/licenses/publicdomain/">
        <cc:permits
           rdf:resource="http://creativecommons.org/ns#Reproduction" />
        <cc:permits
           rdf:resource="http://creativecommons.org/ns#Distribution" />
        <cc:permits
           rdf:resource="http://creativecommons.org/ns#DerivativeWorks" />
      </cc:License>
    </rdf:RDF>
  </metadata>
</svg>
