<?xml version="1.0" encoding="UTF-8" standalone="no"?>
<svg
   xmlns:dc="http://purl.org/dc/elements/1.1/"
   xmlns:cc="http://creativecommons.org/ns#"
   xmlns:rdf="http://www.w3.org/1999/02/22-rdf-syntax-ns#"
   xmlns:svg="http://www.w3.org/2000/svg"
   xmlns="http://www.w3.org/2000/svg"
   xmlns:sodipodi="http://sodipodi.sourceforge.net/DTD/sodipodi-0.dtd"
   xmlns:inkscape="http://www.inkscape.org/namespaces/inkscape"
   id="svg2"
   viewBox="0 0 140 190"
   sodipodi:version="0.32"
   version="1.0"
   inkscape:version="1.0.2-2 (e86c870879, 2021-01-15)"
   y="0"
   x="0"
   sodipodi:docname="nicubunu-White-deck-2-of-hearts.svg">
  <defs
     id="defs24" />
  <sodipodi:namedview
     id="base"
     bordercolor="#666666"
     inkscape:window-x="4416"
     inkscape:window-y="143"
     pagecolor="#ffffff"
     inkscape:zoom="5.4037844"
     inkscape:pageshadow="2"
     borderopacity="1.0"
     inkscape:current-layer="layer1"
     inkscape:cx="76.070034"
     inkscape:cy="158.63874"
     inkscape:window-height="1010"
     inkscape:pageopacity="0.0"
     inkscape:window-width="1591"
     inkscape:document-rotation="0"
     showgrid="false"
     inkscape:window-maximized="0" />
  <g
     id="layer1"
     inkscape:label="Layer 1"
     inkscape:groupmode="layer">
    <path
       id="rect2070"
       style="fill:#000000;fill-opacity:0.49804"
       d="m 21,5 h 103 c 8.86,0 16,7.136 16,16 v 153 c 0,8.86 -7.14,16 -16,16 H 21 C 12.136,190 5,182.86 5,174 V 21 C 5,12.136 12.136,5 21,5 Z" />
    <path
       id="rect1300"
       style="fill:#000000"
       d="m 17,1 h 103 c 8.86,0 16,7.136 16,16 v 153 c 0,8.86 -7.14,16 -16,16 H 17 C 8.136,186 1,178.86 1,170 V 17 C 1,8.136 8.136,1 17,1 Z" />
    <path
       id="path5624"
       style="fill:#000000"
       d="m 19,3 h 103 c 8.86,0 16,7.136 16,16 v 153 c 0,8.86 -7.14,16 -16,16 H 19 C 10.136,188 3,180.86 3,172 V 19 C 3,10.136 10.136,3 19,3 Z" />
    <path
       id="rect1306"
       style="fill:#ffffff"
       d="m 18,2 h 103 c 8.86,0 16,7.136 16,16 v 153 c 0,8.86 -7.14,16 -16,16 H 18 C 9.136,187 2,179.86 2,171 V 18 C 2,9.136 9.136,2 18,2 Z" />
  </g>
  <path
     id="text1386"
     style="fill:#ff0000"
     d="m18.8 36.311h10.915v5.687h-18.025v-5.687l9.054-9.665c0.809-0.884 1.407-1.748 1.794-2.592 0.388-0.844 0.582-1.721 0.582-2.632 0-1.407-0.393-2.538-1.18-3.396-0.775-0.857-1.811-1.286-3.106-1.286-0.997 0-2.088 0.261-3.273 0.784-1.185 0.509-2.453 1.272-3.805 2.291v-6.591c1.44-0.576 2.863-1.012 4.27-1.306 1.407-0.308 2.785-0.462 4.137-0.462 2.968 0 5.272 0.79 6.911 2.371 1.65 1.58 2.475 3.784 2.475 6.61 0 1.635-0.349 3.162-1.047 4.582-0.697 1.406-2.165 3.295-4.402 5.666l-5.3 5.626" />
  <g
     id="g1390"
     style="fill:#ff0000"
     transform="matrix(.28639 0 0 .38877 -29.608 -9.4724)">
    <path
       id="path1392"
       style="fill-rule:evenodd"
       d="m147.21 156.42c-2.54 0.01-5.33 0.48-8.41 1.53-33.62 19.53 11.7 51.04 30.84 78.09l0.56 0.14c21.03-29.57 61.07-62.11 30.47-78.23-24.23-8.25-30.71 19.2-30.93 20.19-0.2-0.87-5.15-21.81-22.53-21.72z"
       transform="matrix(1.1054 0 0 1.0796 -12.014 -18.867)" />
  </g>
  <path
     id="text12521"
     style="fill:#ff0000"
     d="m120.07 152.69h-10.92v-5.69h18.03v5.69l-9.06 9.66c-0.81 0.89-1.41 1.75-1.79 2.6-0.39 0.84-0.58 1.72-0.58 2.63 0 1.4 0.39 2.54 1.18 3.39 0.77 0.86 1.81 1.29 3.1 1.29 1 0 2.09-0.26 3.27-0.78 1.19-0.51 2.46-1.28 3.81-2.29v6.59c-1.44 0.57-2.86 1.01-4.27 1.3-1.41 0.31-2.79 0.46-4.14 0.46-2.97 0-5.27-0.79-6.91-2.37-1.65-1.58-2.47-3.78-2.47-6.61 0-1.63 0.35-3.16 1.04-4.58 0.7-1.41 2.17-3.29 4.41-5.67l5.3-5.62" />
  <g
     id="g12525"
     style="fill:#ff0000"
     transform="matrix(-.28639 0 0 -.38877 168.47 198.31)">
    <path
       id="path12527"
       style="fill-rule:evenodd"
       d="m147.21 156.42c-2.54 0.01-5.33 0.48-8.41 1.53-33.62 19.53 11.7 51.04 30.84 78.09l0.56 0.14c21.03-29.57 61.07-62.11 30.47-78.23-24.23-8.25-30.71 19.2-30.93 20.19-0.2-0.87-5.15-21.81-22.53-21.72z"
       transform="matrix(1.1054 0 0 1.0796 -12.014 -18.867)" />
  </g>
  <g
     id="g1989">
    <g
       id="g2352"
       transform="translate(333.5 184.5)">
      <g
         id="g2020"
         style="fill:#ff0000"
         transform="matrix(.16636 0 0 .22966 -293.81 -168.73)">
        <path
           id="path2022"
           style="fill-rule:evenodd"
           d="m147.21 156.42c-2.54 0.01-5.33 0.48-8.41 1.53-33.62 19.53 11.7 51.04 30.84 78.09l0.56 0.14c21.03-29.57 61.07-62.11 30.47-78.23-24.23-8.25-30.71 19.2-30.93 20.19-0.2-0.87-5.15-21.81-22.53-21.72z"
           transform="matrix(1.1054 0 0 1.0796 -12.014 -18.867)" />
      </g>
    </g>
  </g>
  <g
     id="g1861"
     style="fill:#ff0000"
     transform="matrix(-.16636 0 0 -.22966 98.306 170.45)">
    <path
       id="path1863"
       style="fill-rule:evenodd"
       d="m147.21 156.42c-2.54 0.01-5.33 0.48-8.41 1.53-33.62 19.53 11.7 51.04 30.84 78.09l0.56 0.14c21.03-29.57 61.07-62.11 30.47-78.23-24.23-8.25-30.71 19.2-30.93 20.19-0.2-0.87-5.15-21.81-22.53-21.72z"
       transform="matrix(1.1054 0 0 1.0796 -12.014 -18.867)" />
  </g>
  <metadata
     id="metadata21">
    <rdf:RDF>
      <cc:Work>
        <dc:format>image/svg+xml</dc:format>
        <dc:type
           rdf:resource="http://purl.org/dc/dcmitype/StillImage" />
        <cc:license
           rdf:resource="http://creativecommons.org/licenses/publicdomain/" />
        <dc:publisher>
          <cc:Agent
             rdf:about="http://openclipart.org/">
            <dc:title>Openclipart</dc:title>
          </cc:Agent>
        </dc:publisher>
        <dc:title>White deck: 2 of hearts</dc:title>
        <dc:date>2009-03-24T12:11:27</dc:date>
        <dc:description>playing card from the &quot;White&quot; set</dc:description>
        <dc:source>https://openclipart.org/detail/23170/white-deck:-2-of-hearts-by-nicubunu</dc:source>
        <dc:creator>
          <cc:Agent>
            <dc:title>nicubunu</dc:title>
          </cc:Agent>
        </dc:creator>
        <dc:subject>
          <rdf:Bag>
            <rdf:li>card</rdf:li>
            <rdf:li>cards</rdf:li>
            <rdf:li>deck</rdf:li>
            <rdf:li>gambling</rdf:li>
            <rdf:li>game</rdf:li>
            <rdf:li>play</rdf:li>
            <rdf:li>playing cards</rdf:li>
            <rdf:li>white deck</rdf:li>
          </rdf:Bag>
        </dc:subject>
      </cc:Work>
      <cc:License
         rdf:about="http://creativecommons.org/licenses/publicdomain/">
        <cc:permits
           rdf:resource="http://creativecommons.org/ns#Reproduction" />
        <cc:permits
           rdf:resource="http://creativecommons.org/ns#Distribution" />
        <cc:permits
           rdf:resource="http://creativecommons.org/ns#DerivativeWorks" />
      </cc:License>
    </rdf:RDF>
  </metadata>
</svg>
