<?xml version="1.0" encoding="UTF-8" standalone="no"?>
<svg
   xmlns:dc="http://purl.org/dc/elements/1.1/"
   xmlns:cc="http://creativecommons.org/ns#"
   xmlns:rdf="http://www.w3.org/1999/02/22-rdf-syntax-ns#"
   xmlns:svg="http://www.w3.org/2000/svg"
   xmlns="http://www.w3.org/2000/svg"
   xmlns:sodipodi="http://sodipodi.sourceforge.net/DTD/sodipodi-0.dtd"
   xmlns:inkscape="http://www.inkscape.org/namespaces/inkscape"
   id="svg2"
   sodipodi:docname="nicubunu-White-deck-King-of-clubs.svg"
   viewBox="0 0 140 190"
   sodipodi:version="0.32"
   version="1.0"
   y="0"
   x="0"
   inkscape:version="1.0.2-2 (e86c870879, 2021-01-15)">
  <sodipodi:namedview
     id="base"
     bordercolor="#666666"
     inkscape:pageshadow="2"
     inkscape:window-y="26"
     pagecolor="#ffffff"
     inkscape:window-height="791"
     inkscape:zoom="2"
     inkscape:window-x="0"
     showgrid="false"
     borderopacity="1.0"
     inkscape:current-layer="layer1"
     inkscape:cx="60.096807"
     inkscape:cy="158.6327"
     inkscape:window-width="1152"
     inkscape:pageopacity="0.0"
     inkscape:document-rotation="0"
     inkscape:window-maximized="0" />
  <defs
     id="defs3">
    <linearGradient
       id="linearGradient5407">
      <stop
         id="stop5409"
         style="stop-color:#f0eb00"
         offset="0" />
      <stop
         id="stop5411"
         style="stop-color:#ffff00"
         offset="1" />
    </linearGradient>
  </defs>
  <g
     id="layer1"
     inkscape:label="Layer 1"
     inkscape:groupmode="layer">
    <path
       id="rect2070"
       style="fill:#000000;fill-opacity:0.49804"
       d="m 21,5 h 103 c 8.86,0 16,7.136 16,16 v 153 c 0,8.86 -7.14,16 -16,16 H 21 C 12.136,190 5,182.86 5,174 V 21 C 5,12.136 12.136,5 21,5 Z" />
    <path
       id="rect1300"
       style="fill:#000000"
       d="m 17,1 h 103 c 8.86,0 16,7.136 16,16 v 153 c 0,8.86 -7.14,16 -16,16 H 17 C 8.136,186 1,178.86 1,170 V 17 C 1,8.136 8.136,1 17,1 Z" />
    <path
       id="path5624"
       style="fill:#000000"
       d="m 19,3 h 103 c 8.86,0 16,7.136 16,16 v 153 c 0,8.86 -7.14,16 -16,16 H 19 C 10.136,188 3,180.86 3,172 V 19 C 3,10.136 10.136,3 19,3 Z" />
    <path
       id="rect1306"
       style="fill:#ffffff"
       d="m 18,2 h 103 c 8.86,0 16,7.136 16,16 v 153 c 0,8.86 -7.14,16 -16,16 H 18 C 9.136,187 2,179.86 2,171 V 18 C 2,9.136 9.136,2 18,2 Z" />
  </g>
  <path
     id="text1481"
     style="fill:#000000"
     d="m10.027 12.24h6.396v10.951l9.221-10.951h7.426l-11.945 14.206 13.174 15.794h-8.007l-9.869-11.815v11.815h-6.396v-30" />
  <path
     id="text4064"
     style="fill:#000000"
     d="m128.66 176.63h-6.39v-10.95l-9.22 10.95h-7.43l11.95-14.21-13.18-15.79h8.01l9.87 11.82v-11.82h6.39v30" />
  <path
     id="path908"
     sodipodi:nodetypes="cscsssccccccssscsc"
     style="fill-rule:evenodd;fill:#000000"
     d="m20.527 48.665c-2.666 0-4.83 3.264-4.83 7.286 0 3.426 4.392 9.191 4.222 11.929-1.41 0.783-5.767-6.437-8.019-6.437-2.6665 0-4.83 3.263-4.83 7.285 0 4.023 2.1635 7.286 4.83 7.286 2.312 0 6.276-7.214 8.019-6.563l-2.929 12.874 7.024-0.042s-3.077-12.481-3.081-12.776h0.055v0.014c1.707-0.64 5.806 6.632 8.102 6.632 2.667 0 4.83-3.263 4.83-7.286 0-4.022-2.163-7.285-4.83-7.285-2.242 0-6.308 7.1-8.093 6.368 0.025-2.806 4.36-8.577 4.36-11.999 0-4.022-2.163-7.286-4.83-7.286z" />
  <path
     id="path4052"
     sodipodi:nodetypes="cscsssccccccssscsc"
     style="fill-rule:evenodd;fill:#000000"
     d="m117.42 139.96c2.66 0 4.83-3.26 4.83-7.28 0-3.43-4.39-9.19-4.22-11.93 1.41-0.79 5.76 6.43 8.02 6.43 2.66 0 4.83-3.26 4.83-7.28s-2.17-7.29-4.83-7.29c-2.32 0-6.28 7.22-8.02 6.57l2.93-12.88-7.03 0.04s3.08 12.49 3.08 12.78h-0.05v-0.01c-1.71 0.64-5.81-6.64-8.1-6.64-2.67 0-4.83 3.27-4.83 7.29s2.16 7.29 4.83 7.29c2.24 0 6.3-7.1 8.09-6.37-0.03 2.8-4.36 8.57-4.36 12 0 4.02 2.16 7.28 4.83 7.28z" />
  <metadata
     id="metadata62">
    <rdf:RDF>
      <cc:Work>
        <dc:format>image/svg+xml</dc:format>
        <dc:type
           rdf:resource="http://purl.org/dc/dcmitype/StillImage" />
        <cc:license
           rdf:resource="http://creativecommons.org/licenses/publicdomain/" />
        <dc:publisher>
          <cc:Agent
             rdf:about="http://openclipart.org/">
            <dc:title>Openclipart</dc:title>
          </cc:Agent>
        </dc:publisher>
        <dc:title>White deck: King of clubs</dc:title>
        <dc:date>2009-03-24T09:25:26</dc:date>
        <dc:description>playing card from the &quot;White&quot; set</dc:description>
        <dc:source>https://openclipart.org/detail/23121/white-deck:-king-of-clubs-by-nicubunu</dc:source>
        <dc:creator>
          <cc:Agent>
            <dc:title>nicubunu</dc:title>
          </cc:Agent>
        </dc:creator>
        <dc:subject>
          <rdf:Bag>
            <rdf:li>card</rdf:li>
            <rdf:li>cards</rdf:li>
            <rdf:li>deck</rdf:li>
            <rdf:li>gambling</rdf:li>
            <rdf:li>game</rdf:li>
            <rdf:li>play</rdf:li>
            <rdf:li>playing cards</rdf:li>
            <rdf:li>white deck</rdf:li>
          </rdf:Bag>
        </dc:subject>
      </cc:Work>
      <cc:License
         rdf:about="http://creativecommons.org/licenses/publicdomain/">
        <cc:permits
           rdf:resource="http://creativecommons.org/ns#Reproduction" />
        <cc:permits
           rdf:resource="http://creativecommons.org/ns#Distribution" />
        <cc:permits
           rdf:resource="http://creativecommons.org/ns#DerivativeWorks" />
      </cc:License>
    </rdf:RDF>
  </metadata>
</svg>
